<svg width="160" height="160" viewBox="0 0 160 160" fill="none" xmlns="http://www.w3.org/2000/svg">
<path fill-rule="evenodd" clip-rule="evenodd" d="M71.8161 29.9182C67.9538 31.7044 61.0317 34.9634 56.4337 37.1608C51.8357 39.3575 45.4252 42.4186 42.1882 43.9635C37.4859 46.2069 36.1108 47.1979 35.3504 48.8901C34.3365 51.1475 25 91.1507 25 93.2387C25 93.9199 25.6956 95.4934 26.5456 96.7357C29.798 101.489 53.8882 130.675 55.0867 131.314C57.0055 132.338 102.511 132.166 104.348 131.129C105.136 130.684 112.133 122.439 119.898 112.807C131.782 98.0647 134.013 94.9542 134 93.1461C133.993 91.9644 131.782 81.4554 129.089 69.7928C125.548 54.4585 123.839 48.2416 122.917 47.3366C121.531 45.975 83.2426 27.6529 80.5105 27.0437C79.3502 26.7851 76.6903 27.6649 71.8161 29.9182ZM81.5137 45.809C81.5137 48.4469 81.8307 50.9222 82.2187 51.3094C82.6059 51.6966 84.6464 52.4604 86.7531 53.0076C91.4729 54.2326 95.1486 56.0634 98.1361 58.6773C99.3908 59.775 100.993 60.6727 101.695 60.6727C102.399 60.6727 104.282 59.4578 105.88 57.9728C109.208 54.8804 111.493 54.6365 111.798 57.3404C111.95 58.684 111.396 59.3744 108.941 60.9093C104.725 63.5446 104.231 64.6956 105.91 67.974C107.857 71.7782 109.269 77.6865 109.269 82.0333C109.269 85.407 109.441 85.8628 110.972 86.558C111.909 86.9838 113.819 87.3318 115.216 87.3318C118.036 87.3318 120.265 89.1206 119.6 90.8494C118.94 92.5629 117.539 92.6756 113.616 91.3306C111.57 90.6295 109.446 90.2276 108.896 90.4375C108.346 90.6481 107.079 92.4823 106.081 94.5137C104.054 98.6392 99.6343 103.866 96.9724 105.286C94.7239 106.485 94.6931 108.788 96.8788 112.325C98.7936 115.423 99.0303 117.855 97.474 118.45C95.7525 119.108 94.3922 117.822 93.2599 114.465C91.7183 109.895 90.6375 109.052 87.4534 109.933C84.1528 110.846 75.5855 110.861 72.3277 109.959C68.9035 109.012 67.487 109.923 66.1507 113.933C64.8372 117.874 63.4989 119.219 61.8951 118.213C60.1154 117.096 60.2385 115.696 62.4188 112.271C63.541 110.507 64.4593 108.64 64.4593 108.12C64.4593 107.601 62.396 105.272 59.874 102.945C56.74 100.054 54.6761 97.4522 53.3532 94.727C52.2884 92.5336 50.9221 90.6088 50.3161 90.4489C49.7102 90.2889 47.4998 90.7354 45.4038 91.4399C41.304 92.8195 39.7136 92.3996 39.7136 89.9397C39.7136 88.3281 41.6846 87.3318 44.8714 87.3318C48.493 87.3318 50.6071 85.7255 50.0881 83.3689C49.4795 80.6083 50.7877 73.8263 52.7827 69.3962C53.7792 67.1829 54.3778 64.9215 54.1497 64.2317C53.927 63.5572 52.3179 62.1057 50.5743 61.006C48.1746 59.4917 47.4049 58.602 47.4049 57.3404C47.4049 54.5032 50.0948 54.7558 53.3405 57.8969C54.858 59.3658 56.5587 60.6661 57.1205 60.7867C57.6823 60.9067 59.5122 59.8863 61.1868 58.5194C64.7388 55.6182 68.8894 53.6674 73.6867 52.6417C77.6661 51.7913 78.1751 50.8962 77.4929 45.9516C76.9753 42.2034 77.8507 40.4899 80.1173 40.8131C81.3853 40.9937 81.5137 41.4523 81.5137 45.809ZM73.4881 58.9819C69.9334 60.0509 65.5942 62.3089 64.4473 63.6859C63.6393 64.6563 63.7296 64.9562 65.1609 66.0512C70.0973 69.8268 73.9141 72.1101 74.7528 71.7895C75.4109 71.5383 75.8443 69.7128 76.1693 65.8253C76.8154 58.0975 76.7746 57.9928 73.4881 58.9819ZM82.9296 64.505C83.5195 72.688 83.9696 72.9772 89.8677 68.961C92.4868 67.1775 94.8998 65.394 95.2302 64.9975C96.3337 63.6725 87.2594 58.6733 83.7509 58.6733C82.6039 58.6733 82.541 59.1172 82.9296 64.505ZM57.8254 73.0105C56.314 77.0374 55.9307 83.3329 57.1974 83.3329C58.9149 83.3329 67.5378 80.4831 68.4387 79.618C69.2827 78.8075 69.1516 78.4156 67.4355 76.6148C66.3507 75.4758 64.0573 73.3651 62.3399 71.9235L59.2172 69.3036L57.8254 73.0105ZM94.5333 74.0062C90.1012 78.0471 89.6524 78.6709 90.5426 79.552C91.4508 80.4504 100.533 83.3329 102.457 83.3329C103.537 83.3329 103.452 80.3904 102.238 75.7417C100.427 68.8171 100.265 68.7804 94.5333 74.0062ZM76.5011 79.6613C74.7421 82.9363 77.7517 86.0914 81.3378 84.7325C83.359 83.9667 84.0552 81.2495 82.7182 79.3467C81.3017 77.3313 77.6527 77.5159 76.5011 79.6613ZM63.7905 88.4781C60.6638 89.0259 58.0094 89.5631 57.8917 89.6711C56.9252 90.5628 64.8171 100.661 66.4797 100.661C66.7687 100.661 68.0494 98.1866 69.3255 95.1628C70.9861 91.2273 71.473 89.3332 71.0383 88.4981C70.7046 87.8563 70.2163 87.3657 69.9535 87.4071C69.6907 87.4491 66.9171 87.9309 63.7905 88.4781ZM88.7034 87.7796C88.2439 87.9609 87.8674 88.5381 87.8674 89.0613C87.8674 90.8001 92.2012 100.661 92.965 100.661C94.8008 100.661 102.228 90.7561 101.176 89.7091C101.008 89.5411 98.7722 89.0766 96.208 88.6767C93.6438 88.2768 91.0943 87.8376 90.5426 87.7003C89.9908 87.563 89.1635 87.5983 88.7034 87.7796ZM78.0273 93.4967C76.5231 95.4521 72.3933 103.458 72.721 103.784C73.3517 104.414 81.6368 104.848 84.1247 104.383C85.4476 104.136 86.5297 103.647 86.5297 103.297C86.5297 102.947 85.267 100.411 83.7241 97.6621C80.9586 92.7349 79.4572 91.6372 78.0273 93.4967Z" fill="#336EE5"/>
</svg>
